<?xml version="1.0" standalone="no"?>
<!DOCTYPE svg PUBLIC "-//W3C//DTD SVG 20010904//EN"
 "http://www.w3.org/TR/2001/REC-SVG-20010904/DTD/svg10.dtd">
<svg version="1.0" xmlns="http://www.w3.org/2000/svg"
 width="226.000000pt" height="200.000000pt" viewBox="0 0 226.000000 200.000000"
 preserveAspectRatio="xMidYMid meet">

<g transform="translate(0.000000,200.000000) scale(0.100000,-0.100000)"
fill="#1976D2" stroke="none">
<path d="M710 1890 c-148 -24 -299 -95 -402 -190 -125 -114 -189 -246 -191
-395 -2 -165 54 -292 181 -408 29 -27 42 -48 42 -66 0 -34 -32 -94 -82 -154
-26 -31 -38 -55 -36 -70 3 -20 9 -22 67 -25 94 -4 214 39 302 109 32 25 44 29
73 23 39 -7 49 -16 63 -59 37 -109 177 -251 321 -324 129 -66 350 -96 517 -72
l84 13 38 -30 c107 -85 313 -140 357 -96 22 22 21 27 -24 79 -46 53 -90 134
-90 165 0 11 29 49 66 87 45 47 78 94 107 152 l42 85 0 131 0 132 -43 86 c-87
176 -252 304 -461 355 -71 17 -75 20 -87 56 -60 173 -259 338 -479 396 -91 24
-277 34 -365 20z m285 -79 c50 -10 115 -28 145 -40 84 -32 200 -111 251 -172
40 -46 89 -126 89 -144 0 -3 -27 -5 -59 -5 -152 0 -326 -47 -431 -116 -53 -35
-55 -35 -80 -19 -207 136 -406 101 -418 -74 -2 -43 2 -63 17 -88 31 -49 90
-83 155 -90 31 -3 56 -9 56 -12 0 -3 -7 -31 -15 -61 -8 -30 -15 -88 -15 -129
l0 -74 -40 6 c-35 4 -45 1 -89 -34 -70 -56 -223 -123 -209 -91 2 4 16 31 31
60 16 30 31 75 34 102 l6 48 -63 58 c-74 69 -119 135 -150 221 -19 53 -22 77
-18 156 3 85 8 102 42 173 100 201 346 340 611 343 33 0 101 -8 150 -18z m485
-437 l32 -7 -4 -96 c-3 -78 -9 -108 -32 -157 -24 -53 -32 -63 -64 -72 -21 -6
-45 -17 -55 -24 -17 -13 -16 -15 13 -37 31 -22 32 -22 73 -6 55 22 164 22 207
0 39 -20 64 -73 51 -108 -15 -38 -59 -67 -103 -67 -47 0 -140 37 -205 81 -48
33 -393 357 -393 370 0 9 108 64 165 84 104 35 244 53 315 39z m243 -60 c211
-85 356 -275 357 -467 0 -128 -59 -250 -172 -352 l-60 -54 7 -48 c5 -40 17
-70 63 -167 7 -13 -67 3 -108 24 -19 10 -60 37 -90 59 -30 23 -59 41 -65 41
-5 0 -44 -7 -85 -16 -54 -11 -106 -15 -185 -11 -227 10 -437 117 -544 278 -57
85 -55 89 29 89 130 0 294 46 401 112 25 15 51 28 57 28 6 0 30 -13 54 -29 57
-39 156 -71 216 -71 56 0 127 32 155 71 11 15 22 47 24 72 11 98 -61 178 -174
193 -29 3 -53 12 -53 18 0 6 7 29 14 52 8 22 18 80 22 128 l7 88 36 -7 c20 -4
62 -18 94 -31z m-949 -11 c22 -7 63 -29 91 -48 57 -37 390 -354 390 -370 0
-18 -147 -84 -225 -101 -79 -18 -222 -24 -254 -11 -17 7 -18 16 -14 100 4 64
12 107 27 144 21 46 28 54 77 73 30 12 54 26 54 30 0 5 -13 18 -29 29 l-29 21
-43 -20 c-55 -24 -148 -26 -195 -4 -36 17 -64 58 -64 93 0 26 45 79 73 84 30
6 94 -3 141 -20z"/>
</g>
</svg>
