<?xml version="1.0" standalone="no"?>
<!DOCTYPE svg PUBLIC "-//W3C//DTD SVG 20010904//EN"
 "http://www.w3.org/TR/2001/REC-SVG-20010904/DTD/svg10.dtd">
<svg version="1.0" xmlns="http://www.w3.org/2000/svg"
 width="330.000000pt" height="266.000000pt" viewBox="0 0 330.000000 266.000000"
 preserveAspectRatio="xMidYMid meet">

<g transform="translate(0.000000,266.000000) scale(0.100000,-0.100000)"
fill="#1976D2" stroke="none">
<path d="M1315 2211 c-245 -40 -435 -152 -544 -321 -60 -92 -85 -177 -83 -285
1 -155 58 -283 170 -388 36 -33 52 -56 52 -73 0 -35 -35 -99 -81 -149 -31 -33
-40 -50 -37 -72 l3 -28 75 1 c104 1 208 41 301 115 21 17 34 20 65 14 37 -6
41 -11 76 -83 80 -169 236 -287 463 -353 66 -19 103 -23 215 -23 77 0 153 5
178 12 41 12 43 12 88 -22 70 -53 148 -87 242 -103 75 -13 86 -13 108 2 33 22
30 38 -16 87 -43 46 -90 130 -90 161 0 11 30 52 68 92 107 115 152 222 152
367 0 153 -56 274 -179 391 -100 94 -241 166 -373 191 -21 4 -38 13 -38 20 0
7 -16 46 -36 85 -64 129 -213 254 -369 309 -136 48 -303 70 -410 53z m335
-106 c118 -37 204 -87 281 -164 54 -54 119 -150 119 -176 0 -3 -42 -5 -93 -5
-142 0 -302 -48 -434 -131 -15 -9 -30 -5 -83 25 -95 51 -178 71 -241 56 -87
-21 -139 -82 -139 -162 0 -89 74 -162 178 -175 29 -3 52 -9 52 -12 0 -3 -7
-28 -15 -55 -8 -27 -15 -85 -15 -128 l0 -79 -46 7 c-43 6 -48 4 -82 -29 -20
-19 -57 -45 -81 -57 -54 -27 -123 -52 -128 -46 -2 2 10 29 27 59 17 31 33 77
37 106 l6 51 -76 74 c-56 56 -85 94 -114 152 -37 76 -38 81 -38 183 0 121 14
171 76 262 92 137 252 232 459 273 14 2 79 3 145 1 96 -2 137 -9 205 -30z
m428 -499 c2 -59 -2 -94 -18 -142 -26 -78 -42 -96 -102 -118 -27 -10 -48 -21
-48 -24 0 -4 14 -17 32 -29 28 -20 34 -21 64 -8 49 20 135 28 180 16 138 -37
99 -206 -42 -184 -55 8 -150 53 -211 100 -29 21 -123 108 -209 193 -175 172
-169 156 -72 206 42 21 154 56 218 67 14 3 66 4 115 3 l90 -1 3 -79z m204 24
c186 -76 292 -182 344 -345 28 -88 30 -147 9 -230 -23 -88 -59 -145 -143 -229
l-76 -76 13 -62 c7 -35 23 -82 37 -105 13 -23 24 -44 24 -48 0 -11 -62 6 -111
30 -25 13 -68 42 -96 64 l-51 40 -69 -14 c-37 -8 -118 -15 -179 -15 -194 0
-367 65 -497 189 -47 44 -117 142 -117 163 0 3 45 8 101 12 128 9 248 44 350
102 72 40 83 44 97 31 76 -66 227 -109 307 -87 152 42 168 233 26 305 -29 14
-67 25 -91 25 -45 0 -47 5 -25 68 9 24 18 83 22 132 l6 90 26 -7 c14 -3 56
-18 93 -33z m-955 -6 c82 -28 149 -79 326 -250 95 -91 173 -169 175 -174 6
-16 -135 -80 -221 -100 -51 -12 -117 -20 -174 -20 l-92 0 -7 36 c-13 68 14
221 45 258 5 6 32 20 60 31 28 11 51 22 51 25 0 4 -11 17 -24 29 l-23 22 -75
-22 c-92 -27 -155 -21 -199 19 -40 37 -47 79 -18 115 38 49 93 59 176 31z"/>
</g>
</svg>
